<?xml version="1.0" encoding="utf-8"?>
<!-- Generator: Adobe Illustrator 21.0.0, SVG Export Plug-In . SVG Version: 6.00 Build 0)  -->
<svg version="1.1" id="Layer_1" xmlns="http://www.w3.org/2000/svg" xmlns:xlink="http://www.w3.org/1999/xlink" x="0px" y="0px"
	 viewBox="0 0 144 144" style="enable-background:new 0 0 144 144;" xml:space="preserve">
<path d="M11.6,76.3c-0.4,0-0.9-0.1-1.3-0.3c-1.5-0.7-2.1-2.5-1.4-4l18.4-37.4c0.7-1.5,2.5-2.1,4-1.4c1.5,0.7,2.1,2.5,1.4,4
	L14.2,74.6C13.7,75.7,12.7,76.3,11.6,76.3z M133.6,77.6c1.5-0.6,2.3-2.4,1.6-3.9l-14.5-35.2c-0.6-1.5-2.4-2.3-3.9-1.6
	c-1.5,0.6-2.3,2.4-1.6,3.9L129.7,76c0.5,1.2,1.6,1.9,2.8,1.9C132.8,77.9,133.2,77.8,133.6,77.6z M127.3,80.1l-0.5,1.2
	c-1.5,3.2-4.3,5.4-8,6.3c-0.5,0.1-1,0.2-1.5,0.3c2.9,3.1,3.4,7.9,0.9,11.5c-1,1.5-2.5,2.7-4.2,3.4c0.9,2.7,0.6,5.7-1.1,8.2
	c-1.4,2-3.5,3.4-5.9,3.9c-0.6,0.1-1.2,0.2-1.7,0.2c-0.4,0-0.8,0-1.3-0.1c-0.2,1.4-0.7,2.7-1.5,3.9c-1.4,2-3.5,3.4-5.9,3.9
	c-0.6,0.1-1.2,0.2-1.7,0.2c-1.8,0-3.6-0.6-5.2-1.6l-1.8-1.2c-0.3,1.1-0.7,2.1-1.3,3c-1.8,2.6-4.7,4-7.7,4c-1.8,0-3.6-0.5-5.2-1.6
	l-6.8-4.6c-1,2.1-2.8,3.8-5,4.6c-1.1,0.4-2.2,0.6-3.3,0.6c-1.3,0-2.6-0.3-3.8-0.8c-2.3-1-4-2.8-4.9-5.2c-0.3-0.9-0.5-1.8-0.6-2.7
	c-0.2,0-0.4,0-0.6,0c-1.3,0-2.6-0.3-3.8-0.8c-2.6-1.2-4.5-3.5-5.2-6.1c-0.6,0.1-1.3,0.2-1.9,0.2c-1.3,0-2.6-0.3-3.8-0.8
	c-3.5-1.6-5.6-5.1-5.5-8.7c-0.1,0-0.2,0-0.4,0c-1.3,0-2.6-0.3-3.8-0.8c-4.7-2.1-6.7-7.6-4.7-12.2l2.1-4.7c0.3-0.7,0.7-1.4,1.2-2
	l-4.6-6.3l18-37.2l2.5,0.8c12.8,3.9,25.4,6.4,29.6,5.9c0.2-0.2,0.4-0.3,0.7-0.4c1.7-1.1,3.8-1.6,6-1.3c4.1-0.1,8.8,0.8,12.9,1.7
	c3,0.6,6.2,1.2,7.7,1.1c2.1-0.2,9.6-2,13.8-3.1l2.6-0.7L127.3,80.1z M31.1,93.3l2.1-4.7c0.7-1.6,0-3.6-1.6-4.3
	c-0.4-0.2-0.9-0.3-1.3-0.3c-1.2,0-2.4,0.7-3,1.9l-2.1,4.7c-0.7,1.6,0,3.6,1.6,4.3C28.4,95.7,30.4,94.9,31.1,93.3z M38.9,104.5
	c0.8-0.3,1.5-0.9,1.8-1.7l4.6-10.2c0.4-0.8,0.4-1.7,0.1-2.5c-0.3-0.8-0.9-1.5-1.7-1.8c-0.4-0.2-0.9-0.3-1.3-0.3
	c-0.4,0-0.8,0.1-1.2,0.2c-0.8,0.3-1.5,0.9-1.8,1.7l-4.6,10.2c-0.4,0.8-0.4,1.7-0.1,2.5c0.3,0.8,0.9,1.5,1.7,1.8h0
	C37.2,104.8,38.1,104.9,38.9,104.5z M49.7,111.2c0.8-0.3,1.5-0.9,1.8-1.7l3.9-8.6c0.7-1.6,0-3.6-1.6-4.3c-1.6-0.7-3.6,0-4.3,1.6
	l-3.9,8.6c-0.4,0.8-0.4,1.7-0.1,2.5c0.3,0.8,0.9,1.5,1.7,1.8C48,111.5,48.9,111.5,49.7,111.2z M64.3,111.7c0.4-0.8,0.4-1.7,0.1-2.5
	c-0.3-0.8-0.9-1.5-1.7-1.8c-0.4-0.2-0.9-0.3-1.3-0.3c-1.2,0-2.4,0.7-3,1.9l-2.9,6.4c-0.4,0.8-0.4,1.7-0.1,2.5
	c0.3,0.8,0.9,1.5,1.7,1.8c0.8,0.4,1.7,0.4,2.5,0.1c0.8-0.3,1.5-0.9,1.8-1.7L64.3,111.7z M80.6,115.1l-10.3-7.1
	c0.5,2,0.4,4.2-0.5,6.1l-0.5,1.1l7.7,5.2c1.5,1,3.5,0.6,4.5-0.9C82.5,118.2,82.1,116.2,80.6,115.1z M113.7,93.5
	c-0.2-0.9-0.6-1.6-1.4-2.1l-7.5-5.1c-5.9-1.9-12.4-5.4-18.5-10.2L86,75.9c-4.7-4.7-10.5-10.1-13-11.7l-8,5.7
	c-3,2.1-8.5,2.5-12.9,0.9h0c-3.6-1.3-5.9-3.6-6.3-6.4c-0.3-2.1,0.7-4.1,2.6-5.5l12.3-8.7c-2.1-0.3-4.6-0.8-7.4-1.4
	c-5.5-1.2-10.8-2.7-13.8-3.5L25.3,74.5l2.7,3.7c1.9-0.5,4-0.3,5.9,0.5c1.9,0.9,3.4,2.3,4.4,4.1c0.2-0.1,0.4-0.2,0.6-0.3
	c2.3-0.9,4.8-0.8,7.1,0.2c2.3,1,4,2.8,4.9,5.2c0.3,0.8,0.5,1.6,0.6,2.4c1.6-0.2,3.2,0.1,4.7,0.8c2.3,1,4,2.8,4.9,5.2
	c0.6,1.6,0.7,3.2,0.5,4.8c1.2,0,2.4,0.3,3.6,0.8c1.3,0.6,2.4,1.4,3.3,2.5c1.2-0.8,2.3-1.6,3.4-2.6c0,0,0,0,0,0l21.1,14.5
	c0.7,0.5,1.6,0.7,2.4,0.5c0.9-0.2,1.6-0.6,2.1-1.4c0.9-1.2,0.7-2.9-0.2-4L76.3,97.2c0,0,0-0.1,0.1-0.1c1.2-1.5,2.3-3.1,3.4-4.8
	c0,0,0-0.1,0.1-0.1L100,106c0.4,0.3,0.8,0.6,1.1,0.9l2.3,1.6c0.7,0.5,1.6,0.7,2.4,0.5c0.9-0.2,1.6-0.6,2.1-1.4
	c1-1.5,0.6-3.5-0.9-4.5L82.7,86.4l0,0c0.8-2,1.5-3.9,2-5.9l0,0l23.9,16.3c0.7,0.5,1.6,0.7,2.4,0.5c0.9-0.2,1.6-0.6,2.1-1.4
	C113.7,95.3,113.9,94.4,113.7,93.5z M120.7,79.7l-12.2-30.6c-3.6,0.9-9.8,2.4-12.3,2.6c-2.4,0.2-5.6-0.5-9.4-1.2
	c-3.9-0.8-8.4-1.7-11.8-1.5l-0.3,0l-0.3-0.1c-0.6-0.1-1.4-0.1-2.1,0.4L51.9,63.7c0.3,0.3,1,0.9,2.2,1.3c2.8,1,6.1,0.7,7.4-0.1
	l9.1-6.5c2.5-1.9,5.4,0,12.2,6.2c3.4,3.1,6.5,6.2,7.2,6.9c9.7,7.5,20.9,11.7,27.2,10.2C118.8,81.4,119.9,80.7,120.7,79.7z"/>
</svg>
