<?xml version="1.0" encoding="utf-8"?>
<!-- Generator: Adobe Illustrator 19.1.0, SVG Export Plug-In . SVG Version: 6.00 Build 0)  -->
<svg version="1.1" id="Layer_1" xmlns="http://www.w3.org/2000/svg" xmlns:xlink="http://www.w3.org/1999/xlink" x="0px" y="0px"
	 viewBox="0 0 72 72" style="enable-background:new 0 0 72 72;" xml:space="preserve">
<g>
	<path d="M25.07,36.56c-1.64-0.1-3.14-0.92-4.12-2.23c-1.19-1.6-1.44-3.73-0.65-5.56c0.27-0.63,1.01-0.92,1.64-0.65
		c0.63,0.27,0.93,1.01,0.65,1.64c-0.44,1.01-0.3,2.19,0.36,3.07c0.54,0.73,1.37,1.18,2.28,1.23c0.69,0.04,1.21,0.64,1.17,1.33
		c-0.04,0.66-0.59,1.17-1.25,1.17C25.12,36.57,25.1,36.56,25.07,36.56z M49.99,28.12c-0.63,0.27-0.93,1.01-0.65,1.64
		c0.44,1.01,0.3,2.19-0.36,3.07c-0.54,0.73-1.37,1.18-2.28,1.23c-0.69,0.04-1.21,0.64-1.17,1.33c0.04,0.66,0.59,1.17,1.25,1.17
		c0.03,0,0.05,0,0.08,0c1.64-0.1,3.14-0.92,4.12-2.23c1.19-1.6,1.44-3.73,0.65-5.56C51.36,28.14,50.62,27.85,49.99,28.12z
		 M39.79,55.47c-0.69,0-1.25,0.56-1.25,1.25v1.82h-0.57h-3.94h-0.57v-1.82c0-0.69-0.56-1.25-1.25-1.25c-0.69,0-1.25,0.56-1.25,1.25
		v3.07c0,0.69,0.56,1.25,1.25,1.25h1.82h3.94h1.82c0.69,0,1.25-0.56,1.25-1.25v-3.07C41.04,56.03,40.48,55.47,39.79,55.47z
		 M69.48,41.1l-6.56,0.71c0,0.04,0,0.08,0,0.12c0,1.7-0.37,3.28-1.09,4.74l5.48,0.45c0.69,0.06,1.2,0.66,1.14,1.35
		c-0.05,0.65-0.6,1.15-1.24,1.15c-0.03,0-0.07,0-0.1,0l-6.84-0.56c-1.45,1.71-3.48,3.22-6.1,4.52c-0.93,0.49-1.86,0.81-2.67,1.09
		c-2.42,0.83-3.63,1.25-3.63,5.75c0,1.69-0.62,3.16-1.84,4.36c-2.8,2.75-7.69,3.11-10.04,3.11c-0.07,0-0.13,0-0.19,0
		c-0.06,0-0.12,0-0.19,0c-2.35,0-7.24-0.36-10.04-3.11c-1.22-1.2-1.84-2.67-1.84-4.36c0-4.51-1.21-4.92-3.63-5.75
		c-0.81-0.28-1.74-0.6-2.7-1.11c-2.59-1.28-4.61-2.78-6.05-4.47L4.9,49.61c-0.03,0-0.07,0-0.1,0c-0.64,0-1.19-0.49-1.24-1.15
		C3.49,47.78,4,47.18,4.69,47.12l5.06-0.42c-0.73-1.47-1.1-3.06-1.1-4.77c0-0.06,0-0.11,0-0.17L2.52,41.1
		c-0.69-0.07-1.18-0.69-1.11-1.38c0.07-0.69,0.69-1.18,1.38-1.11l5.86,0.64c0-0.72,0-1.45,0.01-2.2c0.01-1.96,0.02-4.04,0.02-6.28
		c0-2.09,0.37-4.14,1.08-6.09c-0.07-0.01-0.15-0.03-0.22-0.06c-3.54-1.37-9.62-6.04-7.28-13.9c0.19-0.65,0.87-1.03,1.53-0.85
		c3.5,0.96,13.47,3.21,17.55,2.18c0.09-0.02,0.17-0.03,0.26-0.04c4.53-2.44,9.71-3.89,14.19-3.89c4.51,0,9.73,1.47,14.28,3.93
		c0.19-0.05,0.4-0.06,0.61-0.01c4.08,1.03,14.05-1.22,17.55-2.18c0.66-0.18,1.33,0.2,1.53,0.85c2.34,7.87-3.99,12.53-7.67,13.9
		c-0.09,0.03-0.17,0.05-0.26,0.06c0.71,1.96,1.08,4,1.08,6.09c0,2.24,0.01,4.33,0.02,6.28c0,0.77,0.01,1.52,0.01,2.25l6.29-0.68
		c0.68-0.07,1.3,0.42,1.38,1.11C70.66,40.4,70.16,41.02,69.48,41.1z M10.73,22.44c0.59-1.13,1.29-2.23,2.12-3.28l1.6-1.83
		c0.87-0.9,1.82-1.75,2.87-2.56c-4.71-0.22-10.45-1.54-12.95-2.17c-1.2,6.78,5.75,9.56,6.07,9.68
		C10.55,22.32,10.64,22.38,10.73,22.44z M12.49,46.48l10.47-0.86c0-0.61,0.08-1.23,0.26-1.84c0.04-0.14,0.09-0.28,0.14-0.41
		l-12.2-1.33C11.17,43.65,11.61,45.13,12.49,46.48z M57.02,48.78l-8.46-0.7c-0.54,1.3-1.5,2.45-2.84,3.27
		c-0.2,0.12-0.43,0.19-0.66,0.19c-0.07,0-0.14-0.01-0.21-0.02l-2.25-0.39v2.02c0,0.69-0.56,1.25-1.25,1.25
		c-0.69,0-1.25-0.56-1.25-1.25V51.5L36,50.55l-4.1,0.95v1.66c0,0.69-0.56,1.25-1.25,1.25c-0.69,0-1.25-0.56-1.25-1.25v-2.02
		l-2.25,0.39c-0.07,0.01-0.14,0.02-0.21,0.02c-0.23,0-0.46-0.06-0.66-0.19c-1.33-0.82-2.3-1.97-2.84-3.27l-8.86,0.73
		c1.06,0.9,2.37,1.74,3.94,2.52c0.82,0.43,1.61,0.7,2.37,0.97c2.61,0.9,5.32,1.83,5.32,8.12c0,1.01,0.36,1.85,1.1,2.58
		c1.52,1.5,4.68,2.4,8.31,2.39c0,0,0.01,0,0.01,0c0.05,0,0.1,0,0.15,0c0.06,0,0.11,0,0.17,0c0.01,0,0.01,0,0.02,0c0,0,0.01,0,0.01,0
		c3.61,0.01,6.77-0.9,8.29-2.39c0.74-0.72,1.1-1.57,1.1-2.58c0-6.29,2.7-7.22,5.32-8.12c0.76-0.26,1.56-0.53,2.35-0.95
		C54.62,50.55,55.95,49.7,57.02,48.78z M37.7,46.32v1.44l7.08,1.21c1.5-1.11,2.1-2.77,1.6-4.52c-0.4-1.42-1.68-3.06-3.96-3.31
		c-1.91,2.68-3.61,3.98-4.86,4.61C37.65,45.92,37.7,46.11,37.7,46.32z M39.24,41.1h-2.65h-1.18h-2.65c1.07,1.21,2.3,2.34,3.24,2.64
		C36.94,43.44,38.18,42.32,39.24,41.1z M29.58,41.14c-2.28,0.26-3.56,1.89-3.96,3.31c-0.5,1.75,0.1,3.41,1.6,4.52l7.08-1.21v-1.44
		c0-0.21,0.06-0.4,0.14-0.57C33.2,45.12,31.49,43.82,29.58,41.14z M60.42,42.08l-11.77,1.28c0.05,0.14,0.1,0.27,0.14,0.41
		c0.18,0.62,0.26,1.23,0.26,1.84l10.06,0.83C59.95,45.11,60.39,43.66,60.42,42.08z M60.42,39.56c0-0.81-0.01-1.65-0.01-2.51
		c-0.01-1.96-0.02-4.05-0.02-6.29c0-12.3-14.58-20.15-24.61-20.15c-10.03,0-24.61,7.85-24.61,20.15c0,2.24-0.01,4.33-0.02,6.29
		c0,0.85-0.01,1.67-0.01,2.46l12.74,1.38c0.26,0.03,0.49,0.14,0.68,0.3c0.72-0.87,1.65-1.56,2.71-2.01l3.47-7.72
		c-0.47-0.69-1.67-2.19-3.78-3.54v2.66c0,0.69-0.56,1.25-1.25,1.25c-0.69,0-1.25-0.56-1.25-1.25v-3.94
		c-1.47-0.6-3.22-1.06-5.29-1.22c-0.69-0.06-1.2-0.66-1.15-1.35c0.06-0.69,0.66-1.2,1.35-1.15c9.84,0.79,13.63,7.4,13.79,7.68
		c0.1,0.19,0.16,0.4,0.16,0.61l0,0.32c0,0.18-0.03,0.36-0.11,0.53l-2.93,6.52h5.13h1.18h5.06l-2.93-6.52
		c-0.07-0.16-0.11-0.34-0.11-0.51v-0.33c0-0.21,0.05-0.42,0.16-0.61c0.16-0.28,3.95-6.89,13.79-7.68c0.68-0.06,1.29,0.46,1.35,1.15
		c0.06,0.69-0.46,1.29-1.15,1.35c-2.03,0.16-3.75,0.61-5.21,1.2v3.96c0,0.69-0.56,1.25-1.25,1.25c-0.69,0-1.25-0.56-1.25-1.25v-2.7
		c-2.15,1.36-3.38,2.89-3.86,3.57l3.45,7.68c1.09,0.45,2.05,1.15,2.8,2.04c0.19-0.16,0.42-0.27,0.68-0.3L60.42,39.56z M61.2,22.27
		c0.33-0.12,7.57-2.94,6.43-9.67c-2.57,0.64-8.57,2.02-13.35,2.19c1.16,0.9,2.21,1.85,3.14,2.85l0.94,1.03
		c-0.02,0,0.44,0.56,0.42,0.56c0.81,1.04,1.51,2.13,2.08,3.25C60.95,22.39,61.07,22.32,61.2,22.27z"/>
</g>
</svg>
