<?xml version="1.0" encoding="utf-8"?>
<!-- Generator: Adobe Illustrator 21.0.0, SVG Export Plug-In . SVG Version: 6.00 Build 0)  -->
<svg version="1.1" id="Layer_1" xmlns="http://www.w3.org/2000/svg" xmlns:xlink="http://www.w3.org/1999/xlink" x="0px" y="0px"
	 viewBox="0 0 72 72" style="enable-background:new 0 0 72 72;" xml:space="preserve">
<path d="M70.6,37.4L36.4,28c-0.1,0-0.3-0.1-0.4-0.1c-0.1,0-0.3,0-0.4,0.1L1.4,37.4c-0.6,0.2-1.1,0.8-1.1,1.4V39
	c0,0.7,0.4,1.3,1.1,1.4l6.9,1.9v1.9c-1.2,0.6-1.9,1.8-1.9,3L5.4,63.4c0,1.9,1.9,3.4,4.3,3.4c2.4,0,4.3-1.5,4.3-3.5l-0.3-6
	c0.2,0.2,0.5,0.3,0.8,0.3l0.1,0c0,0,0.3,0,0.8,0c2.8,0,12.3,0.6,18.8,8.2c0.1,0.5,0.5,0.9,1,1c0.1,0,0.3,0.1,0.4,0.1h0l0.2,0
	c0.1,0,0.3,0,0.4-0.1c0.5-0.2,0.9-0.6,1-1c6.5-7.6,16.1-8.2,18.9-8.2c0.5,0,0.8,0,0.8,0l0.1,0c0.5,0,0.9-0.2,1.2-0.5
	c0.3-0.4,0.4-0.9,0.3-1.4l-3.3-11.1l15.3-4.2c0.6-0.2,1.1-0.8,1.1-1.4v-0.2C71.7,38.1,71.3,37.5,70.6,37.4z M13.2,47.2
	c0-1.3-0.8-2.5-2-3.1v-1l5.5,1.5l-3.1,9.7L13.2,47.2z M9.1,49.2l0.1-1.9c0-0.3,0.2-0.5,0.5-0.5c0.3,0,0.5,0.2,0.5,0.5l0.1,1.9H9.1z
	 M9,52.1h1.5l0.6,11.3c-0.1,0.1-0.5,0.5-1.4,0.5c-0.8,0-1.3-0.3-1.4-0.5L9,52.1z M19.5,45.4l16.1,4.4c0.1,0,0.3,0.1,0.4,0.1
	s0.3,0,0.4-0.1l16.1-4.4l2.7,9.2c-3.7,0.1-12.7,1.2-19.3,8.4c-6.6-7.1-15.5-8.2-19.3-8.4L19.5,45.4z M36,46.8L7,38.9L36,31l29,7.9
	L36,46.8z"/>
</svg>
