<?xml version="1.0" encoding="utf-8"?>
<!-- Generator: Adobe Illustrator 21.0.0, SVG Export Plug-In . SVG Version: 6.00 Build 0)  -->
<svg version="1.1" id="Layer_1" xmlns="http://www.w3.org/2000/svg" xmlns:xlink="http://www.w3.org/1999/xlink" x="0px" y="0px"
	 viewBox="0 0 72 72" style="enable-background:new 0 0 72 72;" xml:space="preserve">
<path d="M68,66.1v-4.6c0-0.8-0.7-1.5-1.5-1.5h-2.1V53l2.6-4.3c0.6-1,0.3-2.4-0.8-3L48.8,35.5l-5-3L25.3,21.6l1.6-2.8
	c1.4-2.4,0.6-5.5-1.8-6.9l-5-2.9c-1.3-0.8-2.9-0.9-4.4-0.4c-1.5,0.5-2.6,1.7-3.1,3.2L4.9,34.4c-0.8,2.3,0,4.9,2,6.3v25.4H1.5v3H29
	h24.8h5.4h7.2h4.3v-3H68z M37.9,32.5l5.1,3l3.1,1.8l3.3,2l14.5,8.6l-1.8,3l-12.1-7.1l-3.3-2L37,36.1l-2.8-1.6L22,27.2l1.1-1.9
	l0.7-1.1L37.9,32.5z M48.1,51.2H34.7l1.8-12l10.8,6.4L48.1,51.2z M45.5,54.2l-4.1,3.2l-4.1-3.2H45.5z M7.7,35.4l7.8-22.7
	c0.2-0.6,0.7-1.1,1.3-1.3c0.2-0.1,0.5-0.1,0.7-0.1c0.4,0,0.8,0.1,1.1,0.3l5,2.9c1,0.6,1.3,1.9,0.7,2.8L21.6,22c0,0,0,0,0,0L19,26.4
	c0,0,0,0,0,0l-6.6,11.2c-0.7,1.2-2.3,1.6-3.6,0.9C7.8,37.9,7.3,36.6,7.7,35.4z M31.5,52.2c-0.1,0.2-0.1,0.4-0.1,0.6l-2,13.2H9.8
	V41.8c0.1,0,0.2,0,0.3,0c1.9,0,3.8-1,4.8-2.8l5.5-9.3l13.2,7.8L31.5,52.2C31.5,52.2,31.5,52.2,31.5,52.2z M34.1,55.5l4.9,3.8
	l-6.2,4.8L34.1,55.5z M35.1,66.1l6.3-4.9l6.3,4.9H35.1z M43.9,59.3l4.9-3.8l1.3,8.6L43.9,59.3z M57.8,61.5v4.6h-4.4l-2.8-18.5
	l10.7,6.3c0,0,0,0,0.1,0V60h-2.1C58.4,60,57.8,60.6,57.8,61.5z M65,66.1h-4.2V63H65V66.1z"/>
</svg>
