<?xml version="1.0" encoding="utf-8"?>
<!-- Generator: Adobe Illustrator 19.1.0, SVG Export Plug-In . SVG Version: 6.00 Build 0)  -->
<svg version="1.1" id="Layer_1" xmlns="http://www.w3.org/2000/svg" xmlns:xlink="http://www.w3.org/1999/xlink" x="0px" y="0px"
	 viewBox="0 0 72 72" style="enable-background:new 0 0 72 72;" xml:space="preserve">
<g>
	<path d="M37.82,1.02c0-0.04-0.01-0.07-0.01-0.07c0.01,0.01,0.02,0.03,0.03,0.04c0.01-0.01,0.02-0.03,0.03-0.04
		c0,0,0,0.03-0.01,0.07C41.2,5.14,39,10.34,39,10.34h-2.31C36.69,10.34,34.49,5.14,37.82,1.02z M66.23,43.81
		c-0.36-7.9-6.94-8.91-11.74-9.64c-3.38-0.52-5.46-0.93-5.81-2.34c-0.27-1.1,0.31-1.63,2.59-3.01c2.46-1.49,5.83-3.52,4.92-8.35
		c-0.93-4.92-7.25-8.12-16.5-8.35l-0.03,0l-0.12,0l0.19,3.02c6.01,0.17,12.76,2.07,13.48,5.88c0.5,2.63-1.01,3.69-3.51,5.2
		c-2.03,1.23-4.81,2.9-3.97,6.32c0.86,3.48,4.64,4.05,8.29,4.61c5.56,0.85,8.95,1.73,9.18,6.79c0.22,4.75-2.28,12.85-21.4,13.72
		c-0.6,0.03-1.24,0.04-1.97,0.04l-3.97-0.14c-15.15-1.09-25.47-8.3-26.95-18.83c-0.65-4.63,0.87-9.61,4.16-13.65
		c4.68-5.75,12.53-9.26,22.06-9.88l0.94-0.02l0.2-3.04l-0.34,0l-0.95,0.04c-10.41,0.67-19.02,4.57-24.24,10.98
		c-3.82,4.69-5.57,10.51-4.81,15.98c1.68,12,13.04,20.2,29.7,21.42l0.54,8.97c0,0.82,0.67,1.49,1.49,1.49
		c0.82,0,1.49-0.67,1.49-1.49l0.54-8.83l0.15,0l0.01,0c0.78,0,1.46-0.02,2.11-0.05C57.83,59.97,66.68,53.82,66.23,43.81z
		 M36.15,18.77h3.63l0.1,6.09c2.72,0.85,4.7,3.39,4.7,6.39c0,3.69-3,6.69-6.69,6.69c-3.69,0-6.69-3-6.69-6.69
		c0-3.01,2-5.56,4.74-6.4L36.15,18.77z M35.71,31.37l0.11-3.15c-0.97,0.66-1.6,1.77-1.6,3.03c0,2.02,1.65,3.67,3.67,3.67
		c2.02,0,3.67-1.65,3.67-3.67c0-1.27-0.64-2.38-1.62-3.04l0.05,3.17c0,1.18-0.96,2.14-2.14,2.14
		C36.66,33.51,35.71,32.55,35.71,31.37z"/>
</g>
</svg>
