<?xml version="1.0" encoding="utf-8"?>
<!-- Generator: Adobe Illustrator 21.0.0, SVG Export Plug-In . SVG Version: 6.00 Build 0)  -->
<svg version="1.1" id="Layer_1" xmlns="http://www.w3.org/2000/svg" xmlns:xlink="http://www.w3.org/1999/xlink" x="0px" y="0px"
	 viewBox="0 0 72 72" style="enable-background:new 0 0 72 72;" xml:space="preserve">
<path d="M62.4,45.1c0-4.1-3.3-7.3-7.3-7.3c-4.1,0-7.3,3.3-7.3,7.3c0,3.5,2.4,6.4,5.6,7.1c-0.7,7.5-7.1,13.4-14.8,13.4
	c-8.2,0-14.8-6.7-14.8-14.8v-4.1c9.2-0.8,16.5-8.6,16.5-18V13.5c0-3.3-2-6.2-4.8-7.5C35,4.5,33.7,3.4,32,3.4c-1.9,0-3.5,1.6-3.5,3.5
	c0,1.9,1.6,3.5,3.5,3.5c1,0,1.9-0.4,2.6-1.1c1.4,0.9,2.3,2.4,2.3,4.2v15.2c0,8.2-6.7,14.8-14.8,14.8c-8.2,0-14.8-6.7-14.8-14.8V13.5
	c0-1.8,0.9-3.3,2.3-4.2c0.6,0.7,1.6,1.1,2.6,1.1c1.9,0,3.5-1.6,3.5-3.5c0-1.9-1.6-3.5-3.5-3.5c-1.6,0-3,1.1-3.4,2.6
	C6,7.3,4,10.2,4,13.5v15.2c0,9.4,7.3,17.2,16.5,18v4.1c0,10,8.1,18.1,18.1,18.1c9.5,0,17.3-7.3,18.1-16.7
	C60,51.6,62.4,48.7,62.4,45.1z M55.1,49.2c-2.2,0-4.1-1.8-4.1-4.1c0-2.2,1.8-4.1,4.1-4.1c2.2,0,4.1,1.8,4.1,4.1
	C59.1,47.4,57.3,49.2,55.1,49.2z"/>
</svg>
