<?xml version="1.0" encoding="utf-8"?>
<!-- Generator: Adobe Illustrator 19.1.0, SVG Export Plug-In . SVG Version: 6.00 Build 0)  -->
<svg version="1.1" id="Layer_1" xmlns="http://www.w3.org/2000/svg" xmlns:xlink="http://www.w3.org/1999/xlink" x="0px" y="0px"
	 viewBox="0 0 260 70" style="enable-background:new 0 0 260 70;" xml:space="preserve">
<style type="text/css">
	.st0{fill:#FFFFFF;}
</style>
<g>
	<g>
		<polygon class="st0" points="22.28,43.971 7.688,43.971 7.688,28.066 0,28.066 0,67.463 7.688,67.463 7.688,50.947 22.28,50.947 
			22.28,67.463 29.969,67.463 29.969,28.066 22.28,28.066 		"/>
		<path class="st0" d="M57.978,27.35c-11.725,0-20.567,8.864-20.567,20.62v0.047c0,11.307,9.012,20.163,20.517,20.163
			c11.589,0,20.667-8.968,20.667-20.417C78.595,36.317,69.539,27.35,57.978,27.35z M70.907,47.815
			c0,6.581-4.797,13.388-12.824,13.388c-7.429,0-13.031-5.779-13.031-13.441v-0.049c0-7.507,5.701-13.388,12.979-13.388
			C66.09,34.326,70.907,41.184,70.907,47.815z"/>
		<path class="st0" d="M113.867,28.066h-7.638v24.385c0,2.395,0,4.287-1.312,6.259c-0.922,1.561-2.788,2.493-4.991,2.493
			c-2.168,0-4.075-0.979-5.104-2.619c-1.25-1.986-1.25-3.816-1.25-6.132V28.066h-7.684v24.376c-0.05,4.35,0.25,8.561,4.379,12.233
			c3.314,3.252,8.271,3.504,9.711,3.504c3.693,0,6.991-1.221,9.509-3.509c3.927-3.264,4.426-7.806,4.38-12.219V28.066z"/>
		<path class="st0" d="M137.731,44.634l-0.55-0.204c-5.906-2.179-7.774-3.005-7.774-5.845c0-2.9,2.512-4.464,4.875-4.464
			c3.442,0,4.359,2.224,4.837,4.627l0.134,0.673h7.489l-0.052-0.886c-0.492-8.256-6.882-11.185-12.205-11.185
			c-3.705,0-7.193,1.373-9.569,3.767c-2.08,2.095-3.167,4.84-3.144,7.93c0,7.727,7.083,10.048,10.079,11.029l1.037,0.379
			c4.613,1.675,6.829,2.621,6.829,5.773c0,2.856-2.438,5.179-5.435,5.179c-0.852,0-5.124-0.29-5.537-6.004l-0.056-0.776h-7.591
			l0.011,0.848c0.106,7.718,5.296,12.705,13.223,12.705c8.994,0,13.02-6.156,13.02-12.258
			C147.352,49.272,142.618,46.706,137.731,44.634z"/>
		<polygon class="st0" points="151.334,35.038 159.998,35.038 159.998,67.463 167.686,67.463 167.686,35.038 176.354,35.038 
			176.354,28.066 151.334,28.066 		"/>
		<path class="st0" d="M199.268,27.35c-11.724,0-20.565,8.864-20.565,20.62v0.047c0,11.307,9.01,20.163,20.513,20.163
			c11.591,0,20.671-8.968,20.671-20.417C219.887,36.317,210.831,27.35,199.268,27.35z M199.373,61.203
			c-7.429,0-13.031-5.779-13.031-13.441v-0.049c0-7.507,5.701-13.388,12.979-13.388c8.062,0,12.879,6.858,12.879,13.489
			C212.199,54.396,207.401,61.203,199.373,61.203z"/>
		<polygon class="st0" points="252.513,28.066 252.609,54.879 234.316,28.066 227.382,28.066 227.382,67.463 234.868,67.463 
			234.773,40.583 253.218,67.463 260,67.463 260,28.066 		"/>
	</g>
	<g>
		<path class="st0" d="M5.697,17.571c1.598,0,2.891-0.546,3.852-1.42c1.427-1.185,1.777-2.829,1.754-4.973V1.059H8.74v10.119
			c0,1.05,0,1.948-0.613,2.871c-0.437,0.744-1.336,1.246-2.453,1.246c-1.118,0-2.011-0.528-2.496-1.292
			c-0.589-0.942-0.589-1.818-0.589-2.825V1.059H0.001v10.119c-0.02,1.968,0.175,3.569,1.773,4.993
			C2.873,17.245,4.537,17.571,5.697,17.571z"/>
		<polygon class="st0" points="38.885,1.059 36.389,1.059 36.432,13.387 28.023,1.059 25.596,1.059 25.596,17.267 28.088,17.267 
			28.044,4.914 36.522,17.267 38.885,17.267 		"/>
		<rect x="53.24" y="1.059" class="st0" width="2.587" height="16.208"/>
		<polygon class="st0" points="76.034,14.111 71.348,1.059 68.677,1.059 74.743,17.267 77.303,17.267 83.417,1.059 80.745,1.059 		
			"/>
		<polygon class="st0" points="105.347,14.985 98.866,14.985 98.866,10.192 105.265,10.192 105.265,7.935 98.866,7.935 
			98.866,3.336 105.347,3.336 105.347,1.059 96.283,1.059 96.283,17.267 105.347,17.267 		"/>
		<path class="st0" d="M121.724,3.336h2.212c1.159,0,2.057,0.087,2.757,0.524c0.857,0.57,1.379,1.644,1.379,2.738
			c0,1.053-0.37,1.994-1.116,2.653c-0.768,0.657-2.122,0.7-3.24,0.7h-0.57l4.445,7.316h2.738l-3.812-6.024
			c1.25-0.217,2.301-0.613,3.134-1.774c0.594-0.855,0.922-1.948,0.922-3.09c0-1.816-0.813-3.501-2.149-4.378
			c-0.854-0.589-2.168-0.942-4.708-0.942h-4.578v16.208h2.586V3.336z"/>
		<path class="st0" d="M153.598,12.665c0-2.625-1.883-3.656-3.897-4.508c-2.607-0.966-3.808-1.359-3.808-2.938
			c0-1.379,1.135-2.277,2.449-2.277c1.862,0,2.259,1.401,2.434,2.277h2.54c-0.196-3.329-2.805-4.469-4.882-4.469
			c-2.54,0-5.128,1.644-5.108,4.667c0,3.045,2.827,3.986,4.099,4.402c2.077,0.77,3.614,1.183,3.614,2.979
			c0,1.446-1.253,2.583-2.697,2.583c-0.852,0-2.562-0.483-2.74-2.91h-2.56c0.046,3.129,2.103,5.1,5.324,5.1
			C151.826,17.571,153.598,15.294,153.598,12.665z"/>
		<rect x="167.212" y="1.059" class="st0" width="2.583" height="16.208"/>
		<polygon class="st0" points="186.327,17.267 188.906,17.267 188.906,3.336 192.631,3.336 192.631,1.059 182.602,1.059 
			182.602,3.336 186.327,3.336 		"/>
		<polygon class="st0" points="209.879,17.267 212.466,17.267 212.466,11.504 217.544,1.059 214.743,1.059 211.172,9.075 
			207.604,1.059 204.801,1.059 209.879,11.504 		"/>
		<path class="st0" d="M245.299,14.627c3.184,0,5.043-2.453,5.043-4.991c0-2.54-1.859-5.006-5.043-5.006
			c-3.182,0-5.041,2.466-5.041,4.989v0.018C240.258,12.174,242.118,14.627,245.299,14.627z M242.063,9.636
			c0-1.892,1.431-3.303,3.236-3.303c1.811,0,3.236,1.411,3.236,3.303c0,1.896-1.424,3.305-3.236,3.305
			c-1.805,0-3.236-1.409-3.236-3.288V9.636z"/>
		<path class="st0" d="M256.451,14.366h1.809V6.313H260V4.906h-1.74V4.349c0-1.653,1.129-1.653,1.74-1.67V1.255
			c-1.34,0.017-3.549,0.157-3.549,3.008v0.644h-1.285v1.407h1.285V14.366z"/>
	</g>
</g>
</svg>
